Coordinates
version=1
nRows=14
nColumns=63
inDegrees=yes

Units are S.I. units (second, meters, Newtons, ...)
If the header above contains a line with 'inDegrees', this indicates whether rotational values are in degrees (yes) or radians (no).

endheader
time	pelvis_tilt	pelvis_list	pelvis_rotation	pelvis_tx	pelvis_ty	pelvis_tz	hip_flexion_r	hip_adduction_r	hip_rotation_r	knee_angle_r	knee_angle_r_beta	ankle_angle_r	subtalar_angle_r	mtp_angle_r	hip_flexion_l	hip_adduction_l	hip_rotation_l	knee_angle_l	knee_angle_l_beta	ankle_angle_l	subtalar_angle_l	mtp_angle_l	L5_S1_Flex_Ext	L5_S1_Lat_Bending	L5_S1_axial_rotation	L4_L5_Flex_Ext	L4_L5_Lat_Bending	L4_L5_axial_rotation	L3_L4_Flex_Ext	L3_L4_Lat_Bending	L3_L4_axial_rotation	L2_L3_Flex_Ext	L2_L3_Lat_Bending	L2_L3_axial_rotation	L1_L2_Flex_Ext	L1_L2_Lat_Bending	L1_L2_axial_rotation	L1_T12_Flex_Ext	L1_T12_Lat_Bending	L1_T12_axial_rotation	Abs_r3	Abs_r2	Abs_r1	Abs_t1	Abs_t2	neck_flexion	neck_bending	neck_rotation	arm_flex_r	arm_add_r	arm_rot_r	elbow_flex_r	pro_sup_r	wrist_flex_r	wrist_dev_r	arm_flex_l	arm_add_l	arm_rot_l	elbow_flex_l	pro_sup_l	wrist_flex_l	wrist_dev_l
7.305085	2.365463	-9.100440	108.358548	0.245903	0.834113	0.860546	2.751327	0.717928	-2.089582	5.198223	0.090726	22.190121	-6.906925	0.000000	4.136217	-1.280818	12.785391	2.071942	0.036162	25.958255	-0.949130	0.000000	-0.022751	0.310195	-0.330425	-0.042250	0.412560	-0.351077	-0.037377	0.754209	-0.351077	-0.026002	0.754209	-0.289122	-0.021126	0.632550	-0.268470	-0.013000	0.480493	-0.247819	-0.162506	3.508993	-1.837726	0.000000	0.000000	25.976363	13.977706	14.469148	6.828330	-14.921910	76.705759	23.038695	19.996317	-7.705547	2.324649	16.508227	-1.559743	154.813161	11.119600	9.803322	-4.745119	-8.899830
7.322034	2.409310	-8.934720	108.571104	0.245147	0.834011	0.860507	2.372684	0.806711	-2.291194	4.853001	0.084701	22.225330	-6.743552	0.000000	3.949353	-1.329559	13.287229	1.961626	0.034237	25.815889	-1.442163	0.000000	-0.030162	0.321473	-0.421330	-0.056015	0.427559	-0.447663	-0.049554	0.781629	-0.447663	-0.034473	0.781629	-0.368664	-0.028009	0.655548	-0.342331	-0.017235	0.497962	-0.315998	-0.215447	3.636566	-2.343312	0.000000	0.000000	25.971214	14.604195	14.889864	6.695973	-14.951506	75.479285	23.079816	21.032059	-7.855073	2.336370	16.133309	-1.496223	155.555317	10.515568	8.863543	-4.647444	-9.213621
7.338983	2.433678	-8.794160	108.753446	0.244428	0.833877	0.860427	2.054330	0.863105	-2.635249	4.597809	0.080247	22.305951	-6.412465	0.000000	3.793600	-1.358381	13.619624	1.900508	0.033170	25.748908	-1.710817	0.000000	-0.034359	0.328341	-0.504708	-0.063808	0.436694	-0.536253	-0.056449	0.798329	-0.536253	-0.039269	0.798329	-0.441620	-0.031906	0.669554	-0.410076	-0.019633	0.508601	-0.378531	-0.245424	3.714263	-2.807037	0.000000	0.000000	26.028775	15.074047	15.146163	6.485817	-14.960251	73.842510	23.106573	22.604470	-8.044356	2.420901	15.737934	-1.486958	155.678504	9.946087	8.275915	-4.475599	-9.472386
7.355932	2.432100	-8.672075	108.863154	0.243814	0.833758	0.860296	1.783841	0.902292	-2.879886	4.414054	0.077040	22.334482	-6.204965	0.000000	3.643395	-1.358734	13.983871	1.857245	0.032415	25.661575	-2.118251	0.000000	-0.036218	0.330152	-0.576846	-0.067261	0.439102	-0.612899	-0.059503	0.802732	-0.612899	-0.041394	0.802732	-0.504741	-0.033632	0.673246	-0.468688	-0.020695	0.511405	-0.432635	-0.258704	3.734745	-3.208247	0.000000	0.000000	26.129693	15.446940	15.316950	6.448348	-14.908032	73.369857	23.043383	23.311227	-8.164933	2.361481	15.326956	-1.473954	156.030446	9.324848	7.460523	-4.234247	-9.710530
7.372881	2.400058	-8.565731	108.940570	0.243223	0.833653	0.860087	1.543723	0.902067	-3.208832	4.287736	0.074835	22.384616	-5.902959	0.000000	3.497503	-1.330357	14.195328	1.831454	0.031965	25.630488	-2.344013	0.000000	-0.033338	0.325917	-0.632157	-0.061912	0.433469	-0.671666	-0.054771	0.792434	-0.671666	-0.038102	0.792434	-0.553137	-0.030958	0.664610	-0.513627	-0.019049	0.504845	-0.474117	-0.238130	3.686837	-3.515865	0.000000	0.000000	26.272587	15.615724	15.218088	6.453736	-14.834931	73.384336	22.950325	23.751668	-8.249541	2.270149	14.914947	-1.493376	156.140757	8.732501	6.960172	-3.951743	-9.860338
7.389831	2.350297	-8.475764	109.001014	0.242644	0.833574	0.859819	1.332753	0.888076	-3.421322	4.203905	0.073372	22.364591	-5.808475	0.000000	3.362721	-1.277861	14.423631	1.819423	0.031755	25.618753	-2.608711	0.000000	-0.024977	0.318239	-0.679035	-0.046385	0.423258	-0.721475	-0.041035	0.773767	-0.721475	-0.028546	0.773767	-0.594156	-0.023194	0.648953	-0.551716	-0.014272	0.492952	-0.509277	-0.178409	3.599985	-3.776591	0.000000	0.000000	26.435440	15.720359	15.100126	6.529706	-14.749000	73.985861	22.821785	23.730518	-8.250017	2.180882	14.496645	-1.485393	156.679888	8.093495	6.230988	-3.619919	-10.005176
7.406780	2.280247	-8.397749	109.063970	0.242043	0.833526	0.859495	1.138413	0.851651	-3.591101	4.150719	0.072444	22.313613	-5.820914	0.000000	3.232530	-1.200570	14.711466	1.810356	0.031597	25.617120	-2.938148	0.000000	-0.010913	0.308005	-0.723991	-0.020267	0.409647	-0.769240	-0.017929	0.748884	-0.769240	-0.012473	0.748884	-0.633492	-0.010134	0.628084	-0.588242	-0.006236	0.477100	-0.542993	-0.077952	3.484217	-4.026618	0.000000	0.000000	26.612310	15.794533	15.065980	6.704335	-14.660674	75.298097	22.682819	23.113906	-8.159876	2.052755	14.075573	-1.455171	157.539533	7.443654	5.378732	-3.272705	-10.149690
7.423729	2.190594	-8.330951	109.131374	0.241405	0.833503	0.859129	0.961438	0.784236	-3.847675	4.131957	0.072116	22.293072	-5.735085	0.000000	3.108970	-1.103091	14.830317	1.802699	0.031463	25.691732	-2.990815	0.000000	0.007825	0.296856	-0.770276	0.014532	0.394819	-0.818418	0.012856	0.721776	-0.818418	0.008943	0.721776	-0.673991	0.007266	0.605349	-0.625849	0.004471	0.459830	-0.577707	0.055894	3.358096	-4.284041	0.000000	0.000000	26.802111	15.920647	15.316768	6.933421	-14.601601	76.972662	22.560048	22.216561	-7.999014	1.932304	13.655471	-1.428113	158.263549	6.840403	4.712397	-2.973843	-10.279242
7.440678	2.082138	-8.276182	109.225774	0.240710	0.833502	0.858719	0.791927	0.692911	-4.077019	4.125304	0.072000	22.254117	-5.747432	0.000000	2.990369	-0.982003	15.029235	1.788023	0.031207	25.767807	-3.082065	0.000000	0.031735	0.285323	-0.824075	0.058935	0.379479	-0.875579	0.052138	0.693734	-0.875579	0.036270	0.693734	-0.721065	0.029469	0.581830	-0.669561	0.018133	0.441965	-0.618056	0.226681	3.227629	-4.583257	0.000000	0.000000	27.000409	16.115095	15.898891	7.217914	-14.565654	79.047547	22.459790	20.945560	-7.794711	1.774786	13.237260	-1.402331	158.852184	6.290797	4.187715	-2.728451	-10.396737
7.457627	1.964791	-8.232088	109.302923	0.240004	0.833514	0.858233	0.634556	0.587217	-4.244489	4.128865	0.072062	22.207818	-5.819068	0.000000	2.865856	-0.849031	15.372515	1.751441	0.030568	25.805809	-3.365996	0.000000	0.060927	0.275048	-0.875823	0.113147	0.365814	-0.930562	0.100096	0.668751	-0.930562	0.069633	0.668751	-0.766345	0.056576	0.560877	-0.711606	0.034813	0.426049	-0.656867	0.435192	3.111395	-4.871066	0.000000	0.000000	27.214421	16.326836	16.730472	7.520919	-14.556538	81.352077	22.400647	19.498288	-7.607473	1.563910	12.827701	-1.345227	159.572455	5.781551	3.490186	-2.487963	-10.539727
7.474576	1.830312	-8.199295	109.369615	0.239290	0.833542	0.857723	0.495618	0.451455	-4.489089	4.155408	0.072526	22.214729	-5.747088	0.000000	2.745163	-0.700082	15.557127	1.715036	0.029933	25.860275	-3.424506	0.000000	0.091975	0.265250	-0.929809	0.170807	0.352782	-0.987922	0.151106	0.644928	-0.987922	0.105118	0.644928	-0.813583	0.085408	0.540897	-0.755470	0.052555	0.410872	-0.697356	0.656969	3.000556	-5.171317	0.000000	0.000000	27.445550	16.619935	17.874126	7.835774	-14.581075	83.696754	22.397698	18.019417	-7.409572	1.327084	12.455295	-1.312361	159.895871	5.385965	3.090759	-2.309218	-10.687728
7.491525	1.687765	-8.179842	109.407169	0.238606	0.833575	0.857181	0.380495	0.297237	-4.750396	4.198090	0.073271	22.250323	-5.590693	0.000000	2.628635	-0.544554	15.582416	1.678512	0.029296	25.909155	-3.294177	0.000000	0.125691	0.255598	-0.979379	0.233421	0.339946	-1.040590	0.206498	0.621462	-1.040590	0.143652	0.621462	-0.856956	0.116717	0.521216	-0.795745	0.071820	0.395922	-0.734534	0.897797	2.891380	-5.447010	0.000000	0.000000	27.682711	16.881263	19.063585	8.150402	-14.627530	86.048489	22.455960	16.510835	-7.268422	1.064568	12.131874	-1.304100	159.868212	5.122572	2.865943	-2.165687	-10.826018
7.508475	1.551590	-8.171844	109.417388	0.237956	0.833603	0.856625	0.287473	0.149997	-4.788353	4.241588	0.074030	22.230428	-5.695341	0.000000	2.511498	-0.389635	15.864281	1.632122	0.028486	25.812379	-3.595613	0.000000	0.160631	0.247072	-1.024430	0.298308	0.328606	-1.088457	0.263901	0.600732	-1.088457	0.183586	0.600732	-0.896376	0.149162	0.503830	-0.832349	0.091785	0.382715	-0.768323	1.147374	2.794931	-5.697573	0.000000	0.000000	27.907061	17.087517	20.202172	8.497617	-14.690696	88.504903	22.564461	14.922610	-7.157121	0.784125	11.864137	-1.297188	159.718242	4.973480	2.592470	-2.055526	-10.968408
7.525424	1.426895	-8.172257	109.387903	0.237357	0.833624	0.856109	0.229029	0.007920	-4.750834	4.304480	0.075127	22.214651	-5.827798	0.000000	2.399247	-0.243477	16.186333	1.587953	0.027715	25.618676	-4.064388	0.000000	0.194085	0.239765	-1.061092	0.360435	0.318887	-1.127410	0.318862	0.582964	-1.127410	0.221820	0.582964	-0.928455	0.180227	0.488928	-0.862137	0.110900	0.371395	-0.795819	1.386330	2.712265	-5.901475	0.000000	0.000000	28.103042	17.219737	21.199891	8.894995	-14.772580	91.057337	22.735231	13.258015	-7.076779	0.493743	11.672856	-1.310769	159.267516	4.975720	2.428986	-1.997198	-11.135649
